<mxfile host="app.diagrams.net" modified="2021-11-19T04:11:50.136Z" agent="5.0 (Macintosh; Intel Mac OS X 10_15_7) AppleWebKit/537.36 (KHTML, like Gecko) Chrome/96.0.4664.45 Safari/537.36" etag="N8UaioP5tW0x5oLCa5hQ" version="15.8.2" type="github">
  <diagram id="JSCc4tOj0xoOEQYPs_nN" name="Page-1">
    <mxGraphModel dx="1306" dy="729" grid="1" gridSize="10" guides="1" tooltips="1" connect="1" arrows="1" fold="1" page="1" pageScale="1" pageWidth="827" pageHeight="1169" math="0" shadow="0">
      <root>
        <mxCell id="0" />
        <mxCell id="1" parent="0" />
        <mxCell id="-eoRmi5Elhrv5bam7y5l-1" value="" style="rounded=0;whiteSpace=wrap;html=1;fillColor=#dae8fc;strokeColor=#6c8ebf;" vertex="1" parent="1">
          <mxGeometry x="120" y="150" width="70" height="540" as="geometry" />
        </mxCell>
        <mxCell id="-eoRmi5Elhrv5bam7y5l-2" value="" style="rounded=0;whiteSpace=wrap;html=1;fillColor=#d5e8d4;strokeColor=#82b366;" vertex="1" parent="1">
          <mxGeometry x="240" y="190" width="80" height="500" as="geometry" />
        </mxCell>
        <mxCell id="-eoRmi5Elhrv5bam7y5l-3" value="" style="rounded=0;whiteSpace=wrap;html=1;fillColor=#fff2cc;strokeColor=#d6b656;" vertex="1" parent="1">
          <mxGeometry x="374" y="330" width="80" height="360" as="geometry" />
        </mxCell>
        <mxCell id="-eoRmi5Elhrv5bam7y5l-4" value="全局事务" style="text;html=1;strokeColor=none;fillColor=none;align=center;verticalAlign=middle;whiteSpace=wrap;rounded=0;" vertex="1" parent="1">
          <mxGeometry x="125" y="100" width="60" height="30" as="geometry" />
        </mxCell>
        <mxCell id="-eoRmi5Elhrv5bam7y5l-6" value="grpc分支事务" style="text;html=1;strokeColor=none;fillColor=none;align=center;verticalAlign=middle;whiteSpace=wrap;rounded=0;" vertex="1" parent="1">
          <mxGeometry x="250" y="140" width="60" height="30" as="geometry" />
        </mxCell>
        <mxCell id="-eoRmi5Elhrv5bam7y5l-7" value="grpc分支事务" style="text;html=1;strokeColor=none;fillColor=none;align=center;verticalAlign=middle;whiteSpace=wrap;rounded=0;" vertex="1" parent="1">
          <mxGeometry x="384" y="270" width="60" height="30" as="geometry" />
        </mxCell>
        <mxCell id="-eoRmi5Elhrv5bam7y5l-9" value="开始全局事务" style="text;html=1;strokeColor=none;fillColor=none;align=center;verticalAlign=middle;whiteSpace=wrap;rounded=0;" vertex="1" parent="1">
          <mxGeometry x="125" y="170" width="60" height="30" as="geometry" />
        </mxCell>
        <mxCell id="-eoRmi5Elhrv5bam7y5l-14" value="分支事务注册" style="text;html=1;strokeColor=none;fillColor=none;align=center;verticalAlign=middle;whiteSpace=wrap;rounded=0;" vertex="1" parent="1">
          <mxGeometry x="250" y="210" width="60" height="30" as="geometry" />
        </mxCell>
        <mxCell id="-eoRmi5Elhrv5bam7y5l-16" value="执行插入操作id=1" style="text;html=1;strokeColor=none;fillColor=none;align=center;verticalAlign=middle;whiteSpace=wrap;rounded=0;" vertex="1" parent="1">
          <mxGeometry x="250" y="270" width="60" height="30" as="geometry" />
        </mxCell>
        <mxCell id="-eoRmi5Elhrv5bam7y5l-17" value="grpc接口返回" style="text;html=1;strokeColor=none;fillColor=none;align=center;verticalAlign=middle;whiteSpace=wrap;rounded=0;" vertex="1" parent="1">
          <mxGeometry x="250" y="320" width="60" height="30" as="geometry" />
        </mxCell>
        <mxCell id="-eoRmi5Elhrv5bam7y5l-18" value="开始提交事务" style="text;html=1;strokeColor=none;fillColor=none;align=center;verticalAlign=middle;whiteSpace=wrap;rounded=0;" vertex="1" parent="1">
          <mxGeometry x="250" y="370" width="60" height="30" as="geometry" />
        </mxCell>
        <mxCell id="-eoRmi5Elhrv5bam7y5l-19" value="提交完成" style="text;html=1;strokeColor=none;fillColor=none;align=center;verticalAlign=middle;whiteSpace=wrap;rounded=0;" vertex="1" parent="1">
          <mxGeometry x="250" y="640" width="60" height="30" as="geometry" />
        </mxCell>
        <mxCell id="-eoRmi5Elhrv5bam7y5l-22" value="分支事务注册" style="text;html=1;strokeColor=none;fillColor=none;align=center;verticalAlign=middle;whiteSpace=wrap;rounded=0;" vertex="1" parent="1">
          <mxGeometry x="384" y="340" width="60" height="30" as="geometry" />
        </mxCell>
        <mxCell id="-eoRmi5Elhrv5bam7y5l-24" style="edgeStyle=orthogonalEdgeStyle;rounded=0;orthogonalLoop=1;jettySize=auto;html=1;exitX=1;exitY=0.5;exitDx=0;exitDy=0;" edge="1" parent="1" source="-eoRmi5Elhrv5bam7y5l-23" target="-eoRmi5Elhrv5bam7y5l-14">
          <mxGeometry relative="1" as="geometry" />
        </mxCell>
        <mxCell id="-eoRmi5Elhrv5bam7y5l-23" value="分支事务1" style="text;html=1;strokeColor=none;fillColor=none;align=center;verticalAlign=middle;whiteSpace=wrap;rounded=0;" vertex="1" parent="1">
          <mxGeometry x="125" y="210" width="60" height="30" as="geometry" />
        </mxCell>
        <mxCell id="-eoRmi5Elhrv5bam7y5l-26" style="edgeStyle=orthogonalEdgeStyle;rounded=0;orthogonalLoop=1;jettySize=auto;html=1;entryX=0;entryY=0.5;entryDx=0;entryDy=0;" edge="1" parent="1" source="-eoRmi5Elhrv5bam7y5l-25" target="-eoRmi5Elhrv5bam7y5l-22">
          <mxGeometry relative="1" as="geometry" />
        </mxCell>
        <mxCell id="-eoRmi5Elhrv5bam7y5l-25" value="分支事务1" style="text;html=1;strokeColor=none;fillColor=none;align=center;verticalAlign=middle;whiteSpace=wrap;rounded=0;" vertex="1" parent="1">
          <mxGeometry x="125" y="340" width="60" height="30" as="geometry" />
        </mxCell>
        <mxCell id="-eoRmi5Elhrv5bam7y5l-40" style="edgeStyle=orthogonalEdgeStyle;rounded=0;orthogonalLoop=1;jettySize=auto;html=1;exitX=1;exitY=0.25;exitDx=0;exitDy=0;entryX=0;entryY=0.5;entryDx=0;entryDy=0;" edge="1" parent="1" source="-eoRmi5Elhrv5bam7y5l-27" target="-eoRmi5Elhrv5bam7y5l-32">
          <mxGeometry relative="1" as="geometry" />
        </mxCell>
        <mxCell id="-eoRmi5Elhrv5bam7y5l-27" value="查询之前id=1的数据" style="text;html=1;strokeColor=none;fillColor=none;align=center;verticalAlign=middle;whiteSpace=wrap;rounded=0;" vertex="1" parent="1">
          <mxGeometry x="384" y="390" width="60" height="30" as="geometry" />
        </mxCell>
        <mxCell id="-eoRmi5Elhrv5bam7y5l-32" value="&lt;span&gt;因为之前的事务还未提交完成，所以查询不到数据&lt;/span&gt;" style="rounded=1;whiteSpace=wrap;html=1;fillColor=#ffe6cc;strokeColor=#d79b00;" vertex="1" parent="1">
          <mxGeometry x="510" y="367" width="120" height="60" as="geometry" />
        </mxCell>
        <mxCell id="-eoRmi5Elhrv5bam7y5l-41" value="逻辑出错报错" style="text;html=1;strokeColor=none;fillColor=none;align=center;verticalAlign=middle;whiteSpace=wrap;rounded=0;" vertex="1" parent="1">
          <mxGeometry x="384" y="440" width="60" height="30" as="geometry" />
        </mxCell>
        <mxCell id="-eoRmi5Elhrv5bam7y5l-45" style="edgeStyle=orthogonalEdgeStyle;rounded=0;orthogonalLoop=1;jettySize=auto;html=1;exitX=0;exitY=0.5;exitDx=0;exitDy=0;entryX=1;entryY=0.5;entryDx=0;entryDy=0;" edge="1" parent="1" source="-eoRmi5Elhrv5bam7y5l-42" target="-eoRmi5Elhrv5bam7y5l-44">
          <mxGeometry relative="1" as="geometry" />
        </mxCell>
        <mxCell id="-eoRmi5Elhrv5bam7y5l-42" value="回滚，同时通过rpc告诉全局事务处理器全局回滚" style="text;html=1;strokeColor=none;fillColor=none;align=center;verticalAlign=middle;whiteSpace=wrap;rounded=0;" vertex="1" parent="1">
          <mxGeometry x="384" y="520" width="60" height="30" as="geometry" />
        </mxCell>
        <mxCell id="-eoRmi5Elhrv5bam7y5l-44" value="决议回滚" style="text;html=1;strokeColor=none;fillColor=none;align=center;verticalAlign=middle;whiteSpace=wrap;rounded=0;" vertex="1" parent="1">
          <mxGeometry x="125" y="520" width="60" height="30" as="geometry" />
        </mxCell>
        <mxCell id="-eoRmi5Elhrv5bam7y5l-51" style="edgeStyle=orthogonalEdgeStyle;rounded=0;orthogonalLoop=1;jettySize=auto;html=1;exitX=1;exitY=0.5;exitDx=0;exitDy=0;entryX=0.013;entryY=0.77;entryDx=0;entryDy=0;entryPerimeter=0;" edge="1" parent="1" source="-eoRmi5Elhrv5bam7y5l-46" target="-eoRmi5Elhrv5bam7y5l-2">
          <mxGeometry relative="1" as="geometry" />
        </mxCell>
        <mxCell id="-eoRmi5Elhrv5bam7y5l-46" value="通知回滚" style="text;html=1;strokeColor=none;fillColor=none;align=center;verticalAlign=middle;whiteSpace=wrap;rounded=0;" vertex="1" parent="1">
          <mxGeometry x="125" y="560" width="65" height="30" as="geometry" />
        </mxCell>
        <mxCell id="-eoRmi5Elhrv5bam7y5l-52" value="因为这个事务未提交，没有undolog，所以这个分支事务进行了空回滚" style="text;html=1;strokeColor=none;fillColor=none;align=center;verticalAlign=middle;whiteSpace=wrap;rounded=0;" vertex="1" parent="1">
          <mxGeometry x="250" y="560" width="60" height="30" as="geometry" />
        </mxCell>
        <mxCell id="-eoRmi5Elhrv5bam7y5l-53" value="完成" style="text;html=1;strokeColor=none;fillColor=none;align=center;verticalAlign=middle;whiteSpace=wrap;rounded=0;" vertex="1" parent="1">
          <mxGeometry x="125" y="640" width="60" height="30" as="geometry" />
        </mxCell>
        <mxCell id="-eoRmi5Elhrv5bam7y5l-54" value="完成" style="text;html=1;strokeColor=none;fillColor=none;align=center;verticalAlign=middle;whiteSpace=wrap;rounded=0;" vertex="1" parent="1">
          <mxGeometry x="384" y="640" width="60" height="30" as="geometry" />
        </mxCell>
      </root>
    </mxGraphModel>
  </diagram>
</mxfile>
